<?xml version="1.0" standalone="no"?>
<!DOCTYPE svg PUBLIC "-//W3C//DTD SVG 20010904//EN"
 "http://www.w3.org/TR/2001/REC-SVG-20010904/DTD/svg10.dtd">
<svg version="1.0" xmlns="http://www.w3.org/2000/svg"
 width="1920.000000pt" height="1080.000000pt" viewBox="0 0 1920.000000 1080.000000"
 preserveAspectRatio="xMidYMid meet">

<g transform="translate(0.000000,1080.000000) scale(0.100000,-0.100000)"
fill="#000000" stroke="none">
<path d="M3367 10711 c-51 -48 -112 -101 -137 -116 -25 -15 -56 -40 -70 -55
-33 -34 -176 -155 -252 -212 -46 -35 -68 -57 -68 -69 0 -11 90 -53 185 -86 75
-26 73 -26 155 -47 30 -8 101 -27 157 -43 l102 -27 81 82 c44 45 84 82 88 82
4 0 26 17 48 38 22 20 59 53 81 72 22 19 79 71 127 114 48 44 100 89 115 100
15 12 43 37 62 56 46 46 137 129 177 160 17 14 31 28 32 33 0 4 -178 7 -395 7
l-396 0 -92 -89z"/>
<path d="M9217 10793 c-12 -11 -7 -23 7 -17 8 3 17 0 21 -5 3 -6 11 -8 17 -5
6 4 13 3 17 -2 6 -10 59 -37 76 -40 6 -1 16 -2 24 -3 7 0 11 -7 8 -15 -4 -9 3
-16 19 -20 13 -4 24 -11 24 -16 0 -6 7 -10 15 -10 8 0 15 -7 15 -17 0 -9 3
-14 6 -10 4 3 12 1 20 -6 34 -30 42 -35 48 -29 4 3 11 0 16 -8 7 -10 10 -11
10 -2 0 6 5 12 11 12 6 0 9 -7 5 -15 -3 -8 -1 -15 4 -15 6 0 10 4 10 9 0 13
42 22 55 11 5 -4 32 -8 59 -8 27 0 52 -6 56 -12 9 -15 117 -23 125 -9 4 5 11
7 16 4 5 -4 9 0 9 7 0 10 2 10 9 -1 7 -11 12 -11 32 0 13 7 28 12 32 11 4 -1
17 3 28 9 11 6 30 12 42 14 12 3 30 14 39 25 10 12 19 16 23 10 3 -5 1 -10 -6
-10 -7 0 -10 -3 -7 -6 4 -3 15 -1 26 5 39 21 131 33 149 19 7 -5 14 -5 18 2 5
8 11 7 23 -2 11 -9 14 -9 9 -1 -6 9 2 11 28 9 20 -2 54 3 76 10 22 8 55 16 72
18 18 3 32 5 32 6 0 1 12 3 28 4 15 1 27 -2 27 -7 0 -5 7 -7 15 -3 8 3 20 -1
27 -8 21 -20 140 -8 183 19 11 7 38 15 60 19 69 11 82 14 102 24 11 6 31 12
45 14 14 2 33 10 42 17 9 8 19 11 23 8 3 -4 12 -2 20 5 11 9 12 7 6 -8 -5 -16
-4 -17 8 -7 11 9 18 8 33 -3 10 -7 23 -11 27 -8 5 3 9 0 9 -5 0 -6 3 -10 8
-10 4 1 10 0 15 -1 4 -1 13 -3 20 -4 6 -1 11 -8 9 -16 -3 -11 0 -11 12 -1 10
8 16 9 21 1 4 -7 11 -8 18 -2 11 8 35 13 137 27 13 2 29 1 35 -3 13 -9 104 -9
99 0 -7 11 20 16 44 7 12 -5 22 -5 22 0 0 4 27 7 60 6 34 -1 63 2 66 7 3 4 10
6 15 3 5 -4 9 -2 9 2 0 5 23 9 51 10 28 0 55 5 62 12 8 8 -329 11 -1329 11
-738 0 -1344 -3 -1347 -7z"/>
<path d="M10250 10639 c0 -5 5 -7 10 -4 6 3 10 8 10 11 0 2 -4 4 -10 4 -5 0
-10 -5 -10 -11z"/>
<path d="M4965 8993 c-16 -2 -36 -11 -42 -20 -11 -14 -8 -18 15 -30 17 -9 28
-11 30 -4 2 6 9 11 17 11 7 0 18 7 25 15 15 18 -1 20 -19 3 -11 -11 -11 -9 -2
10 6 12 10 21 9 21 -2 -1 -16 -4 -33 -6z"/>
<path d="M6178 8987 c-15 -6 -49 -32 -75 -57 -26 -25 -64 -58 -83 -74 -41 -34
-238 -216 -400 -372 -63 -61 -142 -135 -174 -165 -91 -83 -152 -147 -164 -174
-7 -14 -17 -36 -23 -49 -7 -14 -35 -48 -63 -77 -28 -29 -50 -57 -48 -63 2 -6
0 -8 -4 -4 -4 4 -13 3 -20 -3 -7 -6 -27 -11 -45 -11 -33 -1 -45 9 -92 76 -10
15 -29 33 -43 42 -30 20 -41 14 -147 -88 -42 -40 -100 -95 -130 -123 -221
-204 -304 -283 -394 -372 -57 -57 -103 -101 -103 -99 0 3 -22 -16 -48 -42
-121 -117 -204 -187 -244 -206 -52 -25 -53 -46 -11 -156 14 -35 14 -124 2
-149 -23 -43 -58 -71 -91 -71 -17 0 -112 27 -212 61 -99 34 -185 62 -191 63
-5 2 -21 7 -35 13 -14 6 -50 16 -80 23 -30 7 -62 15 -70 18 -19 7 -18 7 -64
16 -40 8 -91 53 -118 106 -7 14 -15 27 -18 30 -8 7 -32 89 -35 120 -1 13 -8
26 -14 28 -6 2 -11 8 -11 13 0 6 5 7 12 3 7 -5 8 -3 2 7 -5 8 -9 17 -9 21 0 3
-4 10 -9 15 -5 5 -6 3 -2 -4 5 -9 0 -13 -13 -13 -11 0 -28 -14 -40 -33 -11
-18 -30 -45 -43 -59 -25 -29 -98 -82 -98 -71 0 4 -15 -8 -33 -26 -19 -17 -38
-31 -43 -30 -24 6 -129 -75 -119 -92 3 -4 1 -10 -5 -14 -6 -4 -8 -11 -5 -16 4
-5 1 -9 -5 -9 -6 0 -8 -4 -5 -10 3 -5 1 -10 -5 -10 -6 0 -1 -18 10 -40 12 -23
25 -38 30 -35 4 3 10 0 12 -7 3 -8 29 -12 70 -13 49 -1 70 -6 84 -20 10 -10
20 -13 22 -7 2 7 12 6 28 -3 26 -13 64 -10 64 6 0 5 5 9 11 9 6 0 9 -7 5 -15
-3 -8 -1 -15 4 -15 6 0 10 5 10 10 0 6 5 10 11 10 5 0 8 -4 5 -8 -3 -5 1 -9 9
-9 8 0 12 4 9 8 -2 4 0 10 6 14 5 3 10 2 10 -4 0 -7 8 -7 25 -1 18 7 25 6 25
-3 0 -8 4 -7 10 3 8 12 12 12 18 2 5 -7 16 -10 25 -6 11 4 19 0 23 -10 3 -9
10 -16 16 -16 5 0 6 5 2 12 -5 7 -3 8 5 4 7 -5 10 -13 8 -20 -3 -6 2 -17 9
-24 8 -7 14 -9 15 -5 0 4 4 -2 9 -15 8 -19 13 -21 29 -12 17 9 22 6 34 -17 8
-16 12 -33 10 -39 -2 -7 4 -11 14 -10 12 0 17 -5 16 -18 -1 -12 2 -15 9 -8 12
12 68 -2 79 -20 5 -7 12 -13 16 -13 5 0 21 -10 37 -22 16 -13 23 -23 17 -23
-7 0 -10 -4 -7 -9 6 -10 86 9 86 21 0 15 27 8 44 -11 18 -19 56 -35 56 -22 0
4 12 8 27 9 15 1 29 5 32 10 7 8 23 13 62 18 39 5 111 39 140 65 14 13 43 49
65 79 21 30 47 64 58 75 10 11 24 34 32 52 12 27 11 37 -2 68 -8 21 -12 45 -8
54 4 9 8 22 10 30 1 8 10 19 20 24 13 8 14 11 3 18 -11 7 -9 10 9 15 12 4 22
14 23 23 0 12 2 11 9 -4 7 -17 9 -17 9 -2 1 9 8 17 16 17 8 0 15 7 15 15 0 13
19 20 44 16 5 -1 6 6 2 15 -5 12 -2 15 9 10 9 -3 18 1 21 9 4 8 10 12 15 9 5
-3 9 1 9 9 0 16 54 40 65 29 3 -4 3 2 -1 13 -6 18 -4 17 19 -4 21 -19 28 -21
32 -10 3 8 17 16 31 17 13 1 34 11 46 22 12 11 28 20 35 20 7 0 13 5 13 11 0
5 4 8 9 5 5 -4 23 6 40 20 17 14 31 23 31 19 0 -4 13 4 29 17 16 12 42 33 58
45 15 12 51 42 78 67 170 154 261 191 439 180 88 -6 107 -4 120 9 15 15 18 36
6 47 -17 15 -35 141 -29 204 5 61 9 72 35 93 19 15 42 23 68 23 46 0 160 -18
196 -30 14 -5 39 -11 55 -14 57 -9 100 -19 116 -27 35 -18 255 -59 282 -53 18
4 33 16 40 32 10 24 124 155 262 302 121 128 216 232 301 330 31 36 81 92 112
126 40 44 57 69 57 90 0 19 5 28 15 26 11 -3 11 0 1 12 -10 12 -9 14 11 8 21
-5 22 -4 9 11 -9 11 -10 17 -2 17 16 0 54 40 45 48 -3 4 -9 1 -11 -5 -3 -7 -9
-13 -14 -13 -6 0 -7 5 -4 10 11 17 -11 11 -28 -8 -10 -10 -14 -22 -10 -25 3
-4 -1 -7 -9 -7 -9 0 -21 -14 -28 -31 -8 -18 -18 -28 -26 -25 -10 4 -14 -3 -14
-22 0 -17 -3 -22 -8 -14 -6 9 -18 1 -42 -28 -18 -21 -36 -37 -40 -35 -4 2 -13
-7 -20 -20 -7 -13 -16 -22 -20 -20 -3 2 -14 -9 -24 -26 -9 -16 -24 -29 -32
-29 -8 0 -13 -3 -13 -7 3 -20 -2 -26 -11 -13 -8 12 -10 11 -10 -6 0 -17 -24
-39 -38 -34 -6 2 -30 -26 -26 -31 5 -9 -33 -47 -53 -53 -10 -3 -24 -20 -32
-36 -7 -17 -15 -29 -17 -27 -6 5 -62 -44 -145 -126 -74 -75 -136 -112 -156
-95 -9 7 -13 7 -13 -1 0 -7 -4 -10 -8 -7 -7 4 -8 45 -2 54 3 3 7 19 9 33 0 5
6 7 11 4 6 -3 10 1 10 10 0 9 4 14 9 11 5 -3 14 1 21 9 7 8 16 12 21 9 5 -3 6
2 3 10 -3 9 -2 16 2 16 14 0 124 105 124 118 0 7 6 12 13 12 6 0 31 20 55 45
23 24 42 41 42 38 0 -3 8 4 19 15 10 12 21 22 24 22 3 0 21 14 41 32 27 24 33
34 24 41 -9 6 -8 7 4 4 9 -3 22 1 28 9 7 8 10 14 7 14 -11 0 39 49 53 52 18 4
126 110 123 120 -2 4 5 8 14 8 9 0 13 3 9 7 -3 4 8 12 26 17 18 6 31 14 28 18
-3 3 6 19 20 34 18 20 20 26 8 21 -11 -4 -17 -2 -15 5 2 13 -73 37 -198 63
-44 10 -98 23 -120 30 -53 16 -134 17 -167 2z"/>
<path d="M6757 8854 c2 -7 11 -10 19 -7 19 7 18 10 -5 16 -13 3 -18 1 -14 -9z"/>
<path d="M6684 8849 c-4 -8 0 -9 15 -4 13 4 21 2 21 -5 0 -6 5 -8 10 -5 6 3
10 10 10 16 0 13 -47 11 -56 -2z"/>
<path d="M6967 8624 c-29 -31 -106 -111 -172 -178 -168 -171 -263 -275 -257
-281 3 -3 -2 -5 -11 -5 -9 0 -22 -9 -31 -21 -8 -11 -65 -74 -126 -140 -62 -65
-131 -140 -154 -166 -22 -27 -58 -65 -80 -85 -42 -41 -47 -63 -22 -119 19 -45
50 -56 65 -23 6 14 16 21 24 18 8 -3 20 2 27 11 7 8 24 15 39 15 38 0 72 11
65 21 -3 5 0 9 6 9 10 0 261 250 319 317 88 103 228 253 236 253 9 0 79 72
110 115 17 22 36 46 43 53 26 28 32 53 28 119 -4 66 -30 143 -48 143 -5 0 -32
-25 -61 -56z"/>
<path d="M4155 8403 c-11 -2 -31 -6 -43 -9 -13 -3 -100 -80 -192 -172 -235
-233 -323 -313 -345 -313 -10 1 -60 -52 -58 -60 2 -5 -1 -8 -5 -6 -5 1 -25
-13 -46 -30 -20 -18 -34 -33 -31 -33 5 0 -88 -90 -150 -145 -16 -14 -50 -45
-75 -68 -25 -24 -65 -58 -90 -77 -70 -54 -79 -65 -68 -84 5 -9 19 -16 31 -16
12 0 65 -14 117 -31 52 -17 106 -32 120 -35 14 -3 43 -11 65 -18 22 -8 58 -19
80 -25 22 -6 63 -17 90 -26 172 -50 185 -51 199 -8 11 31 117 139 331 336 170
157 318 300 375 362 77 83 139 144 188 185 40 32 89 97 81 104 -11 10 -111 47
-159 60 -30 8 -111 31 -180 51 -195 57 -214 61 -235 58z"/>
<path d="M574 8228 c-17 -4 -37 -15 -44 -23 -17 -20 -54 -20 -46 0 3 8 2 14
-2 13 -4 -1 -15 2 -25 7 -10 4 -23 2 -31 -4 -7 -6 -27 -10 -44 -9 -18 1 -39
-5 -50 -15 -10 -9 -23 -17 -29 -17 -13 0 -140 -128 -175 -176 -13 -17 -46 -54
-75 -81 l-52 -51 -1 -266 0 -266 28 6 c15 4 35 11 45 16 10 5 27 6 39 2 13 -4
18 -2 14 4 -3 6 2 13 12 16 10 4 47 26 82 51 35 25 69 45 76 45 6 0 15 7 18
16 3 8 10 13 15 9 5 -3 12 -1 16 5 8 13 65 13 65 0 0 -5 5 -10 11 -10 5 0 7 5
3 11 -4 8 0 8 15 0 12 -7 26 -9 31 -6 6 3 7 -1 4 -9 -5 -13 0 -15 25 -12 17 2
28 -1 25 -6 -3 -4 7 -8 23 -6 15 1 38 -4 51 -11 12 -6 28 -9 34 -5 7 4 8 3 4
-4 -7 -11 7 -16 41 -15 7 1 11 -3 8 -7 -2 -3 17 -6 43 -5 26 2 52 0 57 -3 6
-4 15 -7 20 -7 26 -2 92 -17 110 -26 11 -5 29 -8 40 -8 55 3 237 -12 253 -20
10 -5 24 -6 31 -2 7 5 21 7 31 4 9 -2 34 3 55 11 20 9 41 13 47 10 5 -3 14 -2
21 3 32 24 165 21 214 -5 32 -18 86 -14 143 8 28 11 60 20 72 20 59 0 158 91
182 168 4 12 12 22 17 22 7 0 7 6 0 17 -7 13 -5 23 7 36 15 17 15 18 -11 8
-15 -6 -27 -7 -27 -2 0 14 -104 74 -130 75 -14 1 -31 7 -38 14 -20 18 -57 16
-57 -3 -1 -18 -16 -35 -27 -29 -5 4 -29 8 -51 10 -71 7 -88 21 -85 71 2 24 8
43 13 43 6 0 4 4 -4 9 -8 5 -10 14 -5 22 6 11 3 10 -10 -1 -10 -8 -30 -16 -44
-18 -14 -2 -39 -14 -55 -28 -33 -28 -50 -30 -67 -9 -7 9 -18 14 -24 12 -6 -2
-29 19 -51 47 -54 69 -56 71 -99 94 -20 11 -47 30 -60 43 -55 57 -106 84 -223
120 -309 94 -364 107 -399 97z m626 -279 c16 -30 9 -59 -21 -82 -23 -16 -30
-17 -50 -6 -39 20 -52 39 -55 76 -2 31 2 36 29 48 27 11 36 11 59 -1 15 -8 32
-23 38 -35z"/>
<path d="M19142 8134 c-13 -9 -22 -11 -22 -4 0 6 -5 8 -12 3 -7 -4 -21 -9 -30
-10 -32 -5 -53 -10 -68 -15 -8 -3 -73 -17 -145 -31 -71 -14 -175 -37 -230 -51
-97 -24 -127 -31 -190 -43 -16 -3 -37 -9 -46 -14 -9 -4 -27 -10 -40 -13 -13
-3 -40 -10 -59 -16 -19 -6 -57 -15 -85 -20 -77 -14 -276 -59 -315 -72 -19 -6
-42 -12 -50 -13 -8 -1 -24 -4 -35 -8 -29 -9 -76 -19 -102 -20 -12 -1 -25 -5
-29 -9 -4 -5 -17 -8 -29 -8 -12 0 -25 -3 -29 -7 -4 -4 -17 -8 -29 -9 -21 -1
-137 -20 -187 -31 -96 -22 -114 -24 -255 -34 -76 -5 -153 -13 -170 -18 -17 -4
-43 -7 -58 -5 -15 1 -25 -1 -22 -6 3 -5 -19 -9 -50 -9 -30 0 -59 -2 -65 -6 -6
-4 -20 -8 -33 -10 -12 -2 -65 -11 -117 -20 -105 -18 -154 -25 -217 -30 -22 -1
-46 -6 -52 -9 -6 -4 -71 -9 -144 -11 -72 -2 -147 -8 -165 -14 -18 -5 -70 -11
-115 -12 -45 -1 -109 -5 -142 -10 -33 -4 -85 -10 -115 -13 -30 -3 -93 -13
-140 -22 -105 -21 -109 -21 -195 -34 -38 -5 -81 -12 -95 -14 -46 -9 -155 -24
-175 -24 -11 0 -40 -3 -65 -6 -25 -4 -61 -9 -80 -11 -19 -3 -46 -9 -60 -14
-14 -5 -59 -14 -100 -21 -41 -6 -100 -19 -130 -27 -63 -19 -168 -83 -163 -99
4 -12 59 -9 96 5 13 5 30 5 37 1 8 -5 19 -5 25 0 6 5 20 9 30 9 27 0 67 6 145
20 36 7 81 14 100 16 19 2 76 11 125 20 121 21 127 22 225 35 47 6 101 13 120
15 19 3 51 7 70 10 19 2 71 7 115 10 44 3 112 10 150 15 39 5 90 12 115 14 48
4 191 20 334 37 98 12 139 26 129 43 -4 6 2 3 13 -6 15 -13 32 -16 69 -13 183
15 340 27 404 31 40 2 78 7 83 10 5 4 40 6 76 5 37 0 92 3 122 9 30 5 80 12
110 15 30 4 69 8 85 11 17 2 75 7 130 9 55 3 125 10 155 15 49 8 165 17 328
25 82 4 268 24 331 35 30 6 84 10 120 10 37 0 81 4 98 9 33 10 83 52 83 71 0
5 6 10 14 10 8 0 17 8 19 18 3 12 5 10 6 -7 1 -23 2 -24 14 -6 15 19 37 13 37
-10 0 -7 6 -16 13 -18 10 -4 10 -6 0 -6 -7 -1 -13 -8 -13 -17 0 -13 14 -14
104 -10 121 7 129 9 142 39 6 12 9 17 8 10 -2 -7 3 -10 11 -7 8 3 11 12 8 20
-4 10 0 12 11 8 20 -8 20 -9 0 -28 -14 -15 -13 -16 10 -16 14 0 26 5 26 11 0
5 5 7 10 4 18 -11 38 14 45 56 4 21 10 37 14 35 8 -6 36 10 37 21 2 23 18 42
40 47 15 4 22 11 18 18 -4 7 -3 8 5 4 6 -4 9 -12 5 -17 -3 -6 8 -7 28 -4 32 6
32 5 13 -10 -17 -14 -18 -16 -2 -11 12 4 16 2 11 -5 -4 -7 4 -20 16 -29 23
-17 36 -50 21 -50 -4 0 -8 -6 -8 -14 0 -8 6 -12 13 -9 9 3 13 51 14 189 1 171
-1 184 -17 184 -10 0 -29 -7 -41 -16z m38 -264 c0 -5 -4 -10 -10 -10 -5 0 -10
5 -10 10 0 6 5 10 10 10 6 0 10 -4 10 -10z m-275 -30 c3 -6 -1 -7 -9 -4 -18 7
-21 14 -7 14 6 0 13 -4 16 -10z m53 -2 c-2 -6 -10 -13 -16 -14 -7 -1 -8 0 -2
3 5 2 8 9 4 14 -3 5 0 9 6 9 7 0 10 -5 8 -12z m-11 -74 c-3 -3 -12 -4 -19 -1
-8 3 -5 6 6 6 11 1 17 -2 13 -5z"/>
<path d="M1730 7741 c0 -5 5 -13 10 -16 6 -3 10 -2 10 4 0 5 -4 13 -10 16 -5
3 -10 2 -10 -4z"/>
<path d="M8857 7733 c-10 -20 10 -202 25 -220 12 -15 17 -103 5 -103 -4 0 -6
-4 -3 -8 14 -24 -59 -63 -94 -50 -12 5 -31 6 -41 3 -11 -4 -19 -2 -19 5 0 6
-4 9 -10 5 -18 -11 -61 8 -77 36 -9 15 -21 25 -26 22 -6 -3 -7 -1 -3 6 4 6 3
17 -2 24 -5 7 -12 25 -16 40 -5 22 -4 27 6 21 13 -8 6 3 -31 48 -8 9 -19 14
-24 11 -5 -3 -13 0 -17 8 -7 10 -13 7 -28 -11 -11 -13 -18 -29 -16 -35 3 -6
-5 -20 -16 -32 -11 -12 -20 -29 -20 -37 0 -9 -7 -12 -20 -9 -11 3 -20 0 -20
-6 0 -6 -4 -11 -10 -11 -5 0 -7 8 -4 18 4 12 3 13 -3 4 -6 -7 -18 -10 -29 -6
-14 4 -15 3 -5 -4 7 -5 9 -12 5 -14 -5 -3 -3 -3 4 -2 16 4 16 -13 0 -18 -7 -3
-13 -31 -16 -74 -4 -87 32 -540 47 -576 7 -19 18 -28 32 -28 12 0 19 -3 16 -7
-4 -3 1 -12 11 -20 16 -12 16 -14 -2 -28 -10 -8 -16 -21 -13 -29 3 -8 0 -17
-8 -20 -10 -3 -12 0 -9 12 5 13 4 14 -4 3 -12 -17 -6 -151 8 -165 7 -7 10 -6
10 4 0 7 17 30 38 51 51 52 62 66 62 78 0 6 11 18 25 27 14 9 25 22 25 30 0 8
6 11 17 7 11 -4 14 -3 9 5 -10 16 14 18 79 9 24 -4 29 -9 28 -26 -2 -13 3 -21
12 -21 8 0 15 -7 15 -15 0 -14 11 -19 38 -16 15 2 16 -26 1 -31 -6 -2 -1 -14
11 -28 12 -14 17 -26 11 -28 -6 -2 -8 -8 -5 -14 4 -6 1 -13 -5 -17 -15 -10 67
-104 85 -97 14 5 24 -14 24 -47 0 -23 39 -81 40 -60 0 6 -4 15 -10 18 -5 3
-10 14 -9 23 0 13 2 12 9 -4 5 -12 13 -25 19 -29 6 -3 11 -15 11 -26 0 -11 -4
-18 -9 -15 -5 3 -7 -9 -6 -27 2 -17 3 -38 4 -45 1 -7 6 -10 12 -7 13 9 8 -27
-6 -37 -5 -4 -1 -8 11 -8 14 0 20 -7 21 -22 1 -80 0 -77 34 -65 17 7 57 36 88
66 62 60 146 102 236 121 33 7 78 25 100 39 39 27 107 61 119 61 4 0 44 18 91
40 64 30 99 55 149 106 93 94 96 99 68 91 -22 -5 -23 -4 -9 11 13 15 13 19 0
31 -12 11 -13 15 -1 22 17 11 5 11 -25 0 -20 -8 -24 -7 -23 7 1 10 -6 16 -16
16 -10 -1 -15 2 -12 7 3 5 -2 12 -10 15 -9 3 -16 11 -16 16 0 6 7 7 16 4 14
-5 15 -4 4 9 -7 8 -16 12 -21 9 -5 -3 -10 1 -10 8 -1 7 -2 18 -4 23 -1 6 -3
16 -3 23 -1 7 -6 11 -11 8 -9 -6 -26 22 -22 37 1 5 -3 6 -8 3 -4 -3 -21 12
-35 35 -23 34 -107 121 -148 154 -7 6 -48 37 -91 70 -42 33 -80 67 -83 77 -3
10 -9 16 -14 13 -4 -3 -10 2 -14 10 -3 8 -12 15 -21 15 -8 0 -15 5 -15 10 0 6
-5 10 -10 10 -6 0 -16 4 -23 10 -7 5 -53 37 -104 70 -117 77 -137 104 -134
181 2 49 -1 59 -18 68 -60 32 -108 102 -94 138 5 12 3 14 -8 8 -12 -8 -12 -6
-1 8 8 9 11 21 7 27 -7 12 -42 14 -48 3z m-407 -973 c0 -5 -4 -10 -10 -10 -5
0 -10 5 -10 10 0 6 5 10 10 10 6 0 10 -4 10 -10z m362 -182 c-7 -7 -12 -8 -12
-2 0 14 12 26 19 19 2 -3 -1 -11 -7 -17z m63 -148 c3 -5 2 -10 -4 -10 -5 0
-13 5 -16 10 -3 6 -2 10 4 10 5 0 13 -4 16 -10z"/>
<path d="M13957 7025 c-10 -9 -17 -11 -20 -5 -3 6 -4 5 -3 -1 4 -21 42 -18 42
3 0 22 -1 22 -19 3z"/>
<path d="M13888 7006 c-10 -7 -15 -16 -12 -19 4 -3 13 1 21 9 20 19 13 26 -9
10z"/>
<path d="M13825 6980 c-3 -5 -1 -10 4 -10 6 0 11 5 11 10 0 6 -2 10 -4 10 -3
0 -8 -4 -11 -10z"/>
<path d="M13758 6948 c-7 -7 -22 -14 -33 -15 -11 -2 -30 -4 -42 -5 -13 -1 -23
-6 -23 -9 0 -4 -24 -15 -52 -25 -29 -9 -58 -20 -64 -25 -6 -5 -28 -11 -50 -15
-48 -7 -95 -32 -142 -74 -29 -27 -90 -70 -98 -70 -4 0 -38 -18 -75 -41 -60
-36 -124 -99 -124 -122 0 -4 -5 -11 -10 -15 -19 -12 -55 -64 -55 -78 0 -10 5
-10 27 1 15 8 30 12 35 9 4 -3 8 -1 8 5 0 5 10 11 23 13 12 2 21 8 20 15 -1 6
5 10 15 9 9 0 16 5 14 12 -1 6 1 11 5 11 29 -5 51 4 61 24 8 17 11 18 11 5 1
-10 5 -18 9 -18 10 0 63 54 65 67 1 4 10 8 20 7 9 0 17 4 17 9 0 5 6 7 14 4 8
-3 20 1 27 9 8 10 21 13 36 9 21 -5 23 -3 17 19 -3 13 -1 27 4 30 6 4 8 -3 5
-16 -6 -22 -5 -22 24 4 22 22 32 25 41 16 9 -9 12 -9 12 -1 0 7 -5 15 -12 19
-7 5 -4 10 10 15 13 5 20 14 16 22 -6 18 64 30 83 15 18 -14 40 12 35 40 -3
17 -1 23 7 18 6 -4 9 -12 6 -17 -3 -5 1 -6 9 -3 9 3 16 10 16 15 0 5 6 9 13 9
21 0 77 30 77 41 0 5 -5 9 -11 9 -5 0 -7 -4 -4 -10 3 -5 -1 -10 -9 -10 -8 0
-13 6 -11 13 7 17 62 40 76 32 7 -5 7 0 -1 15 -10 18 -9 24 1 31 10 6 8 9 -8
9 -12 0 -28 -6 -35 -12z m-35 -53 c-3 -9 -8 -14 -10 -11 -3 3 -2 9 2 15 9 16
15 13 8 -4z m-23 -42 c-8 -3 -22 -12 -31 -20 -14 -12 -17 -12 -22 1 -4 10 -1
13 9 9 7 -3 14 0 14 6 0 6 10 11 23 10 14 0 17 -2 7 -6z"/>
<path d="M7575 6605 c-16 -18 -33 -32 -37 -29 -4 3 -11 -2 -14 -10 -3 -9 -9
-14 -13 -11 -4 2 -18 -6 -32 -19 -14 -13 -32 -22 -42 -20 -9 1 -19 -2 -23 -7
-15 -25 -80 -2 -234 80 -48 26 -60 29 -80 24 -22 -6 -22 -7 -5 -20 11 -7 13
-13 7 -13 -9 0 -10 -5 -2 -19 5 -11 7 -27 4 -35 -3 -9 -1 -16 5 -16 6 0 11 -5
11 -11 0 -6 25 -33 55 -61 31 -28 63 -65 72 -82 9 -17 19 -33 22 -36 21 -17
38 -74 39 -128 0 -33 3 -65 6 -70 3 -6 1 -12 -5 -14 -9 -3 -9 -10 0 -27 7 -12
14 -42 16 -66 2 -25 6 -53 10 -64 3 -11 1 -22 -5 -26 -8 -5 -8 -11 1 -21 8
-10 8 -14 0 -14 -6 0 -11 -4 -11 -10 0 -5 7 -10 16 -10 14 0 14 -2 -1 -16 -12
-12 -13 -19 -4 -30 9 -11 9 -14 0 -14 -7 0 -9 -4 -6 -10 3 -5 1 -10 -5 -10 -6
0 -9 -4 -6 -8 9 -14 -92 -55 -164 -67 -39 -6 -42 -42 -4 -49 10 -2 32 -9 47
-15 16 -6 40 -11 53 -11 28 0 168 -82 219 -128 18 -17 50 -41 71 -55 40 -25
46 -31 114 -128 39 -55 82 -81 101 -62 7 7 -1 130 -15 234 -2 15 -7 102 -11
195 -3 93 -8 171 -10 174 -2 3 -6 30 -9 60 -3 30 -10 87 -16 125 -13 98 -28
244 -35 345 -8 116 -26 218 -40 230 -8 7 -20 -1 -40 -25z"/>
<path d="M13367 6633 c-4 -3 -7 -11 -7 -17 0 -6 5 -5 12 2 6 6 9 14 7 17 -3 3
-9 2 -12 -2z"/>
<path d="M8775 6530 c3 -5 8 -10 11 -10 2 0 4 5 4 10 0 6 -5 10 -11 10 -5 0
-7 -4 -4 -10z"/>
<path d="M3455 6520 c3 -5 8 -10 11 -10 2 0 4 5 4 10 0 6 -5 10 -11 10 -5 0
-7 -4 -4 -10z"/>
<path d="M8447 6364 c-14 -14 -7 -276 12 -447 11 -94 25 -232 32 -304 8 -87
16 -133 24 -133 6 0 21 17 32 38 12 20 34 51 48 67 15 17 34 41 43 55 55 86
124 166 179 206 83 61 133 118 126 145 -5 16 -11 19 -30 14 -15 -3 -22 -2 -19
4 3 5 -3 7 -14 4 -30 -8 -74 17 -100 56 -15 23 -17 31 -7 22 14 -11 17 -11 18
0 1 8 2 21 3 29 1 8 -3 21 -8 28 -6 9 -5 12 4 10 7 -2 15 3 18 11 2 8 0 11 -6
7 -6 -3 -13 -2 -16 3 -3 5 -15 7 -26 4 -14 -4 -20 -1 -18 8 2 11 -10 14 -54
13 -56 -2 -57 -1 -46 20 9 17 8 19 -3 9 -19 -18 -34 -16 -19 2 11 13 10 14 -2
10 -8 -3 -21 1 -28 10 -7 8 -21 15 -32 15 -12 0 -17 4 -12 12 5 8 2 9 -9 5
-11 -4 -17 -1 -17 8 0 9 -6 12 -17 8 -11 -4 -14 -3 -9 5 4 7 1 12 -9 12 -9 0
-14 4 -11 9 7 11 -18 44 -27 35z"/>
<path d="M11135 5591 c-8 -25 -15 -26 -41 -6 -29 22 -41 18 -16 -6 12 -11 20
-24 17 -30 -10 -16 -25 -10 -19 9 5 14 4 15 -5 2 -15 -22 2 -33 31 -19 24 10
54 56 44 66 -2 2 -7 -5 -11 -16z"/>
<path d="M11234 5594 c4 -11 2 -15 -6 -11 -48 18 -54 17 -75 -11 -26 -35 -31
-60 -17 -87 6 -11 10 -32 9 -47 0 -16 2 -28 6 -28 4 0 10 -13 14 -30 4 -16 12
-30 18 -30 6 0 2 -7 -9 -15 -18 -15 -18 -15 0 -8 13 4 17 3 12 -5 -4 -7 0 -19
8 -28 9 -9 14 -20 11 -25 -4 -5 1 -6 9 -3 18 7 17 3 21 69 2 27 9 51 15 53 7
3 7 9 -2 20 -9 10 -9 13 -1 9 7 -5 12 -1 12 10 2 47 9 105 15 110 3 4 6 15 6
25 0 10 7 18 16 18 14 0 14 -3 3 -17 -11 -15 -11 -16 1 -5 8 6 23 12 35 13 18
0 18 1 2 8 -10 4 -17 11 -15 16 2 6 -8 12 -21 13 -17 3 -21 0 -16 -10 6 -10 5
-11 -6 0 -20 18 -53 16 -45 -4z"/>
<path d="M11106 5531 c-4 -7 -5 -15 -2 -18 9 -9 19 4 14 18 -4 11 -6 11 -12 0z"/>
<path d="M10728 5476 c-28 -12 -88 -64 -88 -77 0 -3 23 -11 51 -16 45 -9 54
-8 71 9 10 10 16 23 13 28 -4 6 -2 10 4 10 13 0 10 43 -4 52 -12 9 -14 9 -47
-6z"/>
<path d="M11420 5451 c0 -5 8 -12 18 -14 16 -4 16 -5 0 -6 -18 -1 -23 -12 -12
-24 10 -9 34 4 34 19 0 7 -9 18 -20 24 -12 6 -20 7 -20 1z"/>
<path d="M10958 5433 c7 -3 16 -2 19 1 4 3 -2 6 -13 5 -11 0 -14 -3 -6 -6z"/>
<path d="M10919 5421 c9 -6 10 -11 2 -15 -6 -4 -9 -22 -7 -39 11 -85 20 -117
30 -117 6 0 5 -4 -3 -9 -9 -6 -10 -11 -3 -15 6 -4 9 -13 6 -21 -3 -8 1 -22 10
-31 9 -8 14 -20 11 -25 -11 -16 12 -10 26 8 10 11 10 14 2 9 -8 -4 -13 -1 -13
8 0 9 4 16 8 16 5 0 7 13 4 30 -2 16 -1 38 3 47 5 10 7 22 6 27 -1 4 2 13 7
20 7 10 8 28 2 41 -1 3 -3 8 -4 13 -10 40 -20 53 -37 49 -10 -3 -22 -1 -25 4
-3 5 -13 9 -22 9 -13 0 -14 -2 -3 -9z"/>
<path d="M10725 5310 c-3 -5 -20 -13 -38 -18 -30 -8 -32 -11 -32 -56 0 -37 4
-51 19 -62 25 -17 40 -18 30 -2 -5 7 -2 9 8 6 21 -9 35 21 31 67 -2 22 -4 48
-4 58 0 19 -5 22 -14 7z"/>
<path d="M10378 5159 c-32 -42 -58 -117 -37 -103 5 3 9 -4 9 -15 0 -26 21 -27
50 -3 27 22 37 109 16 137 -12 17 -15 15 -38 -16z"/>
<path d="M10109 4881 c-76 -42 -189 -127 -189 -143 0 -6 -8 -17 -17 -24 -13
-10 -14 -13 -3 -9 10 3 27 -13 50 -46 66 -98 75 -126 81 -247 3 -59 8 -67 32
-49 12 9 17 30 18 75 1 34 6 65 10 67 4 3 13 22 20 43 17 52 57 102 83 102 15
0 17 3 8 9 -11 7 -10 10 3 15 23 8 27 8 20 -4 -3 -5 10 -3 30 6 20 8 40 12 45
9 6 -4 10 -1 10 5 0 6 5 8 12 4 7 -5 9 -2 5 9 -4 10 -2 14 6 11 7 -2 13 6 13
21 1 14 -1 25 -5 25 -4 0 -15 16 -24 35 -9 19 -21 35 -27 35 -5 0 -10 6 -10
13 0 8 -11 20 -25 27 -13 7 -22 17 -19 22 3 5 2 8 -3 7 -18 -3 -34 1 -29 9 11
19 -34 6 -95 -27z"/>
<path d="M9440 4422 c-35 -23 -53 -42 -48 -48 7 -7 38 7 38 17 0 5 7 9 15 9 8
0 19 9 25 20 13 24 4 25 -30 2z"/>
<path d="M9287 4139 c-63 -71 -123 -98 -184 -83 -27 7 -57 5 -108 -6 -83 -18
-98 -26 -90 -49 6 -19 16 -116 18 -168 0 -18 4 -33 9 -33 4 0 8 -8 8 -17 0
-15 2 -16 10 -3 6 10 10 11 10 3 0 -7 4 -13 10 -13 5 0 7 6 4 13 -3 9 4 13 26
11 16 -1 28 1 26 5 -3 4 11 13 30 20 18 7 34 19 34 27 0 8 4 13 8 10 5 -3 19
6 30 19 12 14 29 26 37 26 28 3 31 4 49 22 26 25 55 39 68 31 7 -4 8 -3 4 4
-4 7 -1 12 8 12 8 0 17 9 21 19 4 13 12 18 22 14 11 -4 14 -3 9 6 -5 8 -1 14
13 18 12 3 21 9 21 13 0 4 14 13 30 20 17 7 30 16 30 21 0 5 9 9 21 9 11 0 18
4 15 9 -3 5 4 11 15 14 25 7 22 43 -3 39 -9 -1 -19 2 -23 8 -3 5 -15 10 -25
10 -10 0 -20 5 -22 10 -2 6 -20 12 -41 14 -34 4 -41 0 -90 -55z"/>
<path d="M8315 3312 l-70 -17 -3 -49 c-3 -38 2 -56 22 -85 41 -60 85 -104 99
-98 7 2 29 33 50 67 30 51 37 73 37 115 0 38 -5 56 -18 68 -22 20 -27 20 -117
-1z"/>
<path d="M16105 2240 c-346 -3 -1651 -6 -2898 -8 -2206 -3 -2271 -4 -2345 -23
-94 -24 -145 -53 -201 -116 -68 -76 -101 -140 -101 -197 0 -50 36 -508 45
-561 2 -16 7 -86 10 -155 3 -69 8 -136 10 -150 3 -14 9 -92 15 -175 5 -82 12
-175 15 -205 10 -116 26 -317 29 -365 6 -106 17 -241 22 -262 l4 -22 535 -1
535 0 -5 37 c-2 21 -11 106 -19 188 -32 312 -96 901 -100 920 -3 11 -10 81
-16 155 -6 74 -15 155 -20 180 -5 25 -11 77 -14 115 -8 148 -28 322 -42 378
-18 74 -19 156 -1 159 6 1 415 2 907 3 1124 3 2611 14 2710 20 41 3 269 7 505
9 672 6 1461 16 1670 22 105 2 260 6 345 8 167 4 934 9 987 7 39 -1 55 -27 71
-116 7 -33 20 -91 31 -130 10 -38 37 -140 60 -225 22 -85 59 -222 81 -305 67
-247 97 -359 155 -585 86 -335 100 -389 109 -397 4 -4 5 80 2 187 -3 107 -5
209 -5 225 0 17 2 338 5 714 l5 683 -1233 -3 c-678 -2 -1516 -6 -1863 -9z
m-2605 -50 c0 -5 -5 -10 -11 -10 -5 0 -7 5 -4 10 3 6 8 10 11 10 2 0 4 -4 4
-10z m5623 -1027 c7 -12 -40 -57 -46 -46 -7 11 20 53 33 53 5 0 11 -3 13 -7z
m-8043 -175 c-1 -18 -26 -49 -33 -41 -12 11 -8 41 6 46 21 9 27 8 27 -5z m60
-8 c0 -5 -4 -10 -9 -10 -6 0 -13 5 -16 10 -3 6 1 10 9 10 9 0 16 -4 16 -10z
m-413 -617 c-3 -10 -5 -2 -5 17 0 19 2 27 5 18 2 -10 2 -26 0 -35z m10 -75
c-3 -7 -5 -2 -5 12 0 14 2 19 5 13 2 -7 2 -19 0 -25z m20 -228 c0 -41 -1 -39
-7 15 -4 33 -8 80 -7 105 0 41 1 39 7 -15 4 -33 8 -80 7 -105z"/>
<path d="M12370 1812 c0 -4 9 -13 20 -20 11 -7 20 -9 20 -4 0 4 -9 13 -20 20
-11 7 -20 9 -20 4z"/>
<path d="M12421 1614 c0 -11 3 -14 6 -6 3 7 2 16 -1 19 -3 4 -6 -2 -5 -13z"/>
<path d="M14327 1295 c-66 -22 -86 -98 -33 -123 20 -9 27 -7 41 8 10 11 28 18
43 16 15 -1 33 2 41 8 9 6 12 7 9 1 -4 -6 17 -11 53 -12 57 -3 59 -2 59 22 0
14 6 25 13 25 6 1 -5 9 -27 20 -21 11 -43 23 -50 27 -7 4 -3 0 8 -10 17 -16
18 -20 5 -28 -22 -13 -40 -11 -54 8 -11 15 -15 16 -31 3 -18 -14 -18 -14 -5 3
8 10 21 15 31 12 11 -3 17 0 17 10 0 8 -6 16 -14 16 -47 5 -80 3 -106 -6z"/>
<path d="M14790 1304 c0 -5 9 -15 20 -22 11 -7 20 -8 20 -2 0 6 9 6 23 2 12
-5 34 -8 49 -7 15 0 24 -3 21 -8 -3 -4 -11 -6 -19 -3 -7 3 -16 0 -20 -6 -4 -7
-9 -6 -15 3 -5 8 -9 9 -9 4 0 -10 -17 -15 -62 -18 -10 -1 -18 -9 -18 -20 0
-12 4 -16 13 -11 8 5 8 2 -2 -9 -7 -9 -16 -17 -19 -17 -3 0 -2 3 1 7 7 7 -22
32 -38 32 -5 0 -2 -6 8 -13 12 -9 14 -16 8 -21 -6 -3 -11 -2 -11 2 0 5 -9 14
-20 21 -19 12 -20 11 -8 -8 7 -11 15 -20 18 -21 3 0 16 -3 30 -5 71 -11 110
-12 110 -1 0 8 3 9 8 1 4 -5 23 -10 42 -9 19 0 48 -3 64 -7 28 -7 28 -7 23 30
-10 57 -62 94 -154 107 -13 2 -25 -1 -29 -6 -4 -6 -11 -6 -20 2 -8 6 -14 7
-14 3z m31 -107 c-10 -9 -11 -8 -5 6 3 10 9 15 12 12 3 -3 0 -11 -7 -18z"/>
<path d="M14750 1288 c0 -23 17 -31 24 -12 4 9 4 19 1 22 -3 3 -5 -1 -5 -9 0
-11 -2 -11 -10 1 -8 13 -10 13 -10 -2z"/>
<path d="M14932 1149 c-13 -5 -53 -9 -90 -9 -37 -1 -75 -1 -85 -1 -9 0 -15 -5
-11 -10 3 -6 -4 -13 -16 -16 -16 -4 -18 -8 -9 -14 8 -5 21 -1 33 9 12 11 16
12 11 3 -6 -11 -4 -13 9 -8 9 4 15 3 11 -2 -8 -14 17 -20 38 -9 9 5 17 5 17 1
0 -4 11 -9 24 -9 14 -1 33 -10 43 -20 10 -11 16 -18 14 -16 -2 1 -12 -5 -22
-14 -10 -9 -25 -14 -33 -11 -22 9 -10 -16 16 -32 11 -7 32 -14 45 -16 31 -3
39 -13 25 -27 -9 -9 -12 -8 -12 7 -1 20 -1 20 -12 0 -6 -11 -15 -23 -20 -26
-5 -3 -10 -16 -11 -28 -1 -21 -2 -21 -15 -4 -9 11 -13 12 -10 4 4 -15 19 -25
52 -36 19 -5 19 -6 0 -24 -10 -10 -27 -17 -36 -15 -10 1 -20 -1 -23 -7 -4 -5
9 -9 29 -9 19 0 37 6 40 13 5 10 7 10 12 0 3 -7 10 -13 15 -13 6 0 8 3 6 8 -3
4 6 8 19 8 14 1 31 7 39 14 13 11 13 14 -2 25 -16 12 -14 12 10 8 20 -4 27 -1
27 11 0 10 -6 13 -17 9 -15 -5 -16 -3 -5 8 17 19 15 29 -6 29 -29 0 -33 10
-12 32 24 27 32 58 15 64 -8 3 -11 12 -8 20 3 8 2 35 -2 60 -6 42 -9 46 -31
41 -13 -2 -24 0 -24 4 0 11 -8 11 -38 -2z m101 -229 c7 0 6 -4 -3 -10 -19 -12
-33 -13 -26 -1 4 5 3 11 -1 14 -5 2 -2 2 5 0 8 -1 19 -3 25 -3z"/>
<path d="M14300 1130 c0 -5 5 -10 11 -10 5 0 7 -5 4 -11 -4 -6 -13 -8 -21 -5
-8 3 -11 0 -8 -9 3 -8 15 -17 26 -21 11 -3 17 -8 14 -11 -3 -4 -1 -12 6 -20 6
-7 8 -16 4 -20 -3 -3 -6 -1 -6 6 0 9 -4 9 -14 -1 -16 -17 -14 -104 4 -137 10
-19 14 -21 21 -10 6 10 9 8 9 -8 0 -27 6 -29 26 -8 11 11 12 15 3 15 -7 0 -9
3 -6 6 9 9 76 11 71 2 -2 -4 0 -9 6 -13 5 -3 10 -2 10 4 0 6 7 8 15 4 10 -3
15 0 13 8 -2 8 7 14 24 14 15 1 30 4 34 7 3 4 -12 5 -34 3 -34 -3 -40 -1 -35
12 5 13 2 15 -15 11 -31 -8 -39 11 -12 29 12 8 19 21 16 29 -3 8 -2 13 2 12
14 -3 60 21 65 34 6 18 17 6 23 -28 4 -20 0 -32 -13 -42 -17 -12 -17 -14 0
-23 9 -6 17 -19 17 -29 0 -16 4 -18 23 -11 12 4 28 6 35 4 7 -3 12 4 12 16 0
23 -7 26 -30 11 -22 -14 -42 7 -29 32 6 11 8 25 6 33 -3 7 0 12 6 12 41 -1 49
3 37 18 -7 8 -21 15 -32 15 -13 0 -17 4 -12 13 6 9 4 9 -7 2 -8 -6 -29 -10
-46 -9 -25 2 -33 -2 -34 -14 0 -11 -2 -12 -6 -4 -2 6 -13 12 -24 12 -14 0 -19
7 -19 25 0 14 -5 25 -11 25 -5 0 -8 -3 -6 -7 2 -5 -4 -16 -15 -25 -10 -10 -18
-16 -18 -13 0 3 -9 1 -19 -5 -13 -7 -22 -7 -26 0 -3 5 0 10 8 10 28 0 27 29
-1 44 l-27 15 25 1 c23 1 23 2 5 10 -28 12 -55 12 -55 0z m107 -96 c-3 -3 -12
-4 -19 -1 -8 3 -5 6 6 6 11 1 17 -2 13 -5z m4 -57 c-6 -8 -8 -17 -4 -20 3 -4
2 -7 -4 -7 -6 0 -14 7 -17 16 -3 8 -2 12 3 9 5 -3 12 -1 16 5 3 5 9 10 12 10
3 0 0 -6 -6 -13z"/>
<path d="M14431 1126 c-8 -9 -4 -12 14 -12 27 0 33 11 11 19 -8 3 -19 0 -25
-7z"/>
<path d="M14696 1121 c-4 -5 3 -7 14 -4 23 6 26 13 6 13 -8 0 -17 -4 -20 -9z"/>
<path d="M14380 1110 c0 -5 5 -10 10 -10 6 0 10 5 10 10 0 6 -4 10 -10 10 -5
0 -10 -4 -10 -10z"/>
<path d="M14506 1108 c3 -4 14 -8 24 -8 10 0 20 -8 22 -17 3 -16 4 -16 20 0
20 20 29 22 24 5 -1 -7 -1 -10 1 -6 2 4 12 5 21 2 14 -5 13 -2 -2 10 -11 9
-29 17 -40 17 -12 1 -33 2 -48 3 -15 1 -24 -2 -22 -6z"/>
<path d="M14645 1040 c-3 -6 1 -7 9 -4 18 7 21 14 7 14 -6 0 -13 -4 -16 -10z"/>
<path d="M14784 1039 c-3 -5 6 -8 20 -7 26 2 26 10 1 14 -8 1 -17 -2 -21 -7z"/>
<path d="M14796 1005 c-3 -9 3 -19 16 -26 18 -10 20 -9 15 5 -4 9 -2 16 3 16
6 0 10 5 10 10 0 16 -37 12 -44 -5z"/>
<path d="M15033 955 c0 -8 4 -12 9 -9 5 3 6 10 3 15 -9 13 -12 11 -12 -6z"/>
<path d="M14485 841 c3 -5 0 -13 -6 -17 -6 -3 -15 0 -20 7 -7 11 -9 10 -9 -3
0 -27 45 -24 47 2 1 11 -3 20 -8 20 -6 0 -8 -4 -4 -9z"/>
<path d="M14716 829 c2 -4 -4 -10 -13 -13 -11 -3 -9 -4 6 -3 26 2 41 24 17 24
-8 0 -13 -4 -10 -8z"/>
<path d="M14510 816 c0 -2 7 -7 16 -10 8 -3 12 -2 9 4 -6 10 -25 14 -25 6z"/>
<path d="M13272 603 c-6 -2 -10 -8 -7 -13 3 -4 -3 -7 -13 -6 -11 1 -17 -6 -16
-21 0 -12 -3 -20 -8 -17 -4 3 -8 -4 -8 -15 0 -18 15 -35 32 -36 3 0 10 -4 15
-8 4 -5 4 -8 -2 -7 -25 5 -35 -2 -34 -22 0 -21 1 -21 8 -4 4 11 15 20 25 22
13 2 15 -2 10 -19 -8 -28 -3 -22 25 28 21 36 21 38 2 15 -12 -15 -21 -20 -21
-11 0 8 -7 19 -16 25 -13 10 -12 12 7 13 12 1 26 6 31 11 6 6 -1 8 -16 7 -14
-2 -28 1 -31 5 -3 5 4 7 15 5 23 -4 42 26 22 33 -7 2 -10 8 -6 13 6 10 5 10
-14 2z m-28 -89 c3 -8 2 -12 -4 -9 -6 3 -10 10 -10 16 0 14 7 11 14 -7z"/>
<path d="M13900 606 c0 -2 8 -10 18 -17 15 -13 16 -12 3 4 -13 16 -21 21 -21
13z"/>
<path d="M13906 548 c3 -4 9 -8 15 -8 5 0 9 4 9 8 0 5 -7 9 -15 9 -8 0 -12 -4
-9 -9z"/>
<path d="M13935 500 c-3 -5 -1 -10 4 -10 6 0 11 5 11 10 0 6 -2 10 -4 10 -3 0
-8 -4 -11 -10z"/>
<path d="M13253 414 c-16 -16 -17 -38 -2 -28 8 4 10 -7 6 -37 -3 -24 -3 -35 0
-25 4 15 7 16 14 5 5 -8 6 8 2 41 -3 30 -6 56 -7 56 -1 1 -7 -4 -13 -12z"/>
<path d="M13992 353 c1 -26 6 -54 11 -61 5 -7 7 -15 3 -19 -3 -3 -6 -1 -6 5 0
7 -5 12 -11 12 -8 0 -8 -5 1 -15 16 -20 44 -20 36 0 -3 8 -8 37 -12 65 -9 66
-24 75 -22 13z"/>
<path d="M13264 235 c2 -16 5 -33 5 -37 1 -5 9 -8 19 -8 9 0 13 4 7 8 -5 4
-12 16 -13 27 -2 11 -8 25 -13 30 -7 7 -9 0 -5 -20z"/>
<path d="M14011 231 c-11 -7 -11 -9 0 -13 11 -4 10 -8 -4 -22 -21 -21 -23 -33
-2 -16 8 7 15 8 15 3 0 -5 -11 -15 -25 -21 -14 -6 -25 -16 -25 -22 0 -6 -10
-15 -22 -21 -20 -8 -19 -9 7 -4 34 6 85 56 85 83 0 27 -14 42 -29 33z"/>
<path d="M13960 180 c-9 -6 -10 -10 -3 -10 6 0 15 5 18 10 8 12 4 12 -15 0z"/>
<path d="M13880 110 c0 -5 4 -10 9 -10 6 0 13 5 16 10 3 6 -1 10 -9 10 -9 0
-16 -4 -16 -10z"/>
</g>
</svg>
